<?xml version="1.0" encoding="utf-8"?>
<!-- Generator: Adobe Illustrator 20.1.0, SVG Export Plug-In . SVG Version: 6.00 Build 0)  -->
<svg version="1.1" id="Layer_1" xmlns="http://www.w3.org/2000/svg" xmlns:xlink="http://www.w3.org/1999/xlink" x="0px" y="0px"
	 viewBox="0 0 493 134" style="enable-background:new 0 0 493 134;" xml:space="preserve">
<style type="text/css">
	.st0{fill:#F15D22;}
	.st1{fill:#FFEF6F;}
</style>
<g>
	<g>
		<polygon class="st0" points="98.3,110 100.3,110 100.3,115 101.4,115 101.4,110 103.5,110 103.5,108.9 98.3,108.9 		"/>
		<polygon class="st0" points="108.6,108.9 106.8,111.2 104.9,108.9 103.9,108.9 103.9,115 105,115 105,110.8 106.6,112.8 
			106.9,112.8 108.4,110.8 108.4,115 109.6,115 109.6,108.9 		"/>
	</g>
	<circle class="st1" cx="56.1" cy="64.9" r="53.1"/>
	<g>
		<path class="st0" d="M22.6,51.6c0,0,2.3-0.3,5.5-0.3c2.9,0,7.1,0.3,10.8,1.4c-1.8,1.1-3.5,2.4-4.9,4.1c-3.1,3.7-4.5,8.4-4.1,13.2
			c0,0.2,0.2,0.4,0.4,0.4h0.1c0.2,0,0.3-0.1,0.4-0.2S38.3,59.9,47,59.4c0.1,0,0.2,0,0.2-0.1c0.1,0,0.2,0.1,0.3,0
			c0.5-0.1,1-0.1,1.6-0.1c8.2,0,16.2,7.7,16.3,7.8c0.1,0.1,0.2,0.1,0.3,0.1c0.1,0,0.1,0,0.2,0c0.2-0.1,0.3-0.3,0.3-0.5
			c-0.7-7.3-5.5-13.1-12-15.4c6.6-3.5,15.7-4.1,15.8-4.1c0.2,0,0.4-0.1,0.4-0.3c0.1-0.2,0-0.4-0.2-0.5c-3.2-2.7-7.3-4.2-11.5-4.2
			c-4.8,0-9.3,1.9-12.7,5.2c-3-2-6.5-3.1-10.1-3.1c-5.4,0-10.4,2.4-13.9,6.5c0,0.2,0,0.5,0.1,0.6C22.2,51.5,22.4,51.6,22.6,51.6z"/>
		<path class="st0" d="M69.4,61.1c-0.3,0.2-0.4,0.6-0.3,1c0.1,0.3,0.4,0.6,0.8,0.6c0.1,0,5.9,0.4,10.5,2.5c-4.5,2-7.7,6.3-8.2,11.4
			c0,0.4,0.2,0.7,0.5,0.9c0.1,0.1,0.3,0.1,0.4,0.1c0.2,0,0.5-0.1,0.6-0.2s5.9-5.6,11.8-5.6c0.4,0,0.8,0,1.1,0.1h0.1l0,0h0.1
			c0.1,0,0.1,0,0.2,0c6.3,0.4,11.6,7.8,11.7,7.9c0.2,0.2,0.4,0.4,0.7,0.4c0.1,0,0.2,0,0.2,0c0.4-0.1,0.6-0.4,0.7-0.8
			c0.3-3.7-0.8-7.3-3.1-10.2c-0.8-1-1.8-1.8-2.8-2.5c2.4-0.6,4.9-0.7,6.7-0.7c2.3,0,4,0.2,4.1,0.2h0.1l0,0c0.5,0,0.9-0.4,0.9-0.9
			c0-0.3-0.1-0.5-0.3-0.7c-2.7-3.1-6.5-4.9-10.7-4.9c-2.7,0-5.2,0.8-7.5,2.2c-2.6-2.4-6-3.8-9.5-3.8C75.1,57.9,71.9,59,69.4,61.1z"
			/>
		<path class="st0" d="M122,97.6c0-0.1,0-0.2,0-0.3l0,0l0,0c0-0.8-0.5-1.4-1.3-1.5c-0.1,0-0.2,0-0.3,0l0,0l0,0
			c-1.9,0-3.9,0.1-5.8,0.1c0,0,0,0-0.1,0c-1.9,0.1-3.8,0.1-5.6,0.2c-0.2,0-0.5,0-0.7,0c-1.5,0.1-3.1,0.2-4.6,0.3
			c-0.7,0-1.3,0.1-2,0.2c-1,0.1-2,0.2-3,0.3c-0.5,0-1.1,0.1-1.6,0.1h-0.1c-4,0.4-8,0.9-11.8,1.4c1.3-6.4,2.6-14.3,3.3-23.5
			c0.1-1.1-0.7-2.1-1.8-2.1c-1.1-0.1-2.1,0.7-2.1,1.8C83.8,84.3,82.4,92.5,81,99c-10.5,1.6-20.3,3.7-29,5.9c0.5-9.9,0.3-23.9-2-41.1
			c-0.1-1.1-1.2-1.9-2.2-1.7c-1.1,0.1-1.9,1.2-1.7,2.2c2.3,17.5,2.4,31.8,1.9,41.6c-5.5,1.5-10.5,3-15,4.5c-0.1,0-0.2,0-0.3,0.1
			c-14.4,4.7-23.4,8.8-24.1,9.2H8.5c-0.8,0.4-1.1,1.3-0.7,2.1c0.3,0.6,0.8,0.9,1.4,0.9c0.2,0,0.5,0,0.7-0.2c0,0,0,0,0.1,0
			c1.1-0.5,15.6-7.2,38-13.3c-0.5,7.3-1.3,11.4-1.3,11.5c-0.2,1.1,0.5,2.1,1.6,2.3c0.1,0,0.3,0,0.4,0c0.9,0,1.8-0.7,2-1.6
			c0.1-0.4,1-5.1,1.5-13.4c8.5-2.2,18.1-4.3,28.4-5.9c-2.1,8.5-4,13.2-4.1,13.3c-0.4,1,0,2.2,1.1,2.6c0.3,0.1,0.5,0.2,0.8,0.2
			c0.8,0,1.5-0.5,1.8-1.2c0.2-0.4,2.4-5.8,4.7-15.5c4.5-0.6,9.1-1.2,13.9-1.7c1.4-0.1,2.7-0.2,4.1-0.4c0.4,0,0.9-0.1,1.3-0.1
			c1.7-0.1,3.4-0.2,5.2-0.3c0.1,0,0.3,0,0.4,0c3.8-0.2,7.7-0.3,11.5-0.4c0.6,0,1.1-0.4,1.4-0.9C121.9,97.9,122,97.8,122,97.6
			L122,97.6z"/>
		<path class="st0" d="M7.5,109.1L7.5,109.1c0.1,0,0.1-0.1,0.2-0.1h0.1c0,0,0.1,0,0.2-0.1c2.8-1.2,14.1-5.9,30.8-10.6
			c0.8-0.2,1.3-1.1,1.1-1.9s-1.1-1.3-1.9-1.1c-7.4,2.1-13.8,4.2-18.8,6l0,0c-8.3,2.9-12.9,5-13.1,5.1c-0.8,0.4-1.1,1.3-0.8,2.1
			c0.3,0.6,0.8,0.9,1.4,0.9c0.2,0,0.4,0,0.6-0.1C7.3,109.2,7.4,109.2,7.5,109.1z"/>
	</g>
</g>
<g>
	<g>
		<path class="st0" d="M171.1,73.4c-4.1,1.9-8.7,3.1-12.8,3.1c-14.5,0-27.6-11.9-27.6-28.7c0-13.9,9.9-25,23-27
			c9.9-1.4,18.6,1.1,25.3,8.2c2.5,2.9-2,6.4-4.4,3.8c-5.8-6.1-12.5-7.1-20-6.2c-10.5,1.6-17.9,9-17.9,21.3
			c0,12.9,9.9,22.8,21.7,22.8c3.1,0,6.6-0.8,9.9-2.5c2.6-1.4,5.2-3.4,7-5.7c2-2.9,7.1,0.3,4.9,3.4C178,69.1,174.8,71.6,171.1,73.4z"
			/>
		<path class="st0" d="M194.1,33.4c2.8-1.3,5.9-1.7,9.1-1.6c4.8,0.1,10.4,1.6,13.4,6.6v-3.3c0-1.8,1.1-3.1,3.1-3.1
			c1.9,0,3.1,1.3,3.1,3.1v37.7c0,1.9-1.3,3.1-3.1,3.1c-2,0-3.1-1.2-3.1-3.1v-4.1c-2.5,4.9-8.8,7.7-13.8,7.7c-4.1,0-8.7-1.1-12.2-3.7
			c-6.5-4.4-9.8-11.6-9.5-20C181.2,44.3,186,36.4,194.1,33.4L194.1,33.4z M216.6,57.4v-6.7c0-8.4-5.9-12.8-13.5-13.1
			c-6-0.1-12.2,3.1-14.5,9.1c-0.8,1.8-1.2,4.1-1.3,6.3c-0.2,5.5,1.6,10.6,6.2,14.5c2.5,2,5.6,3,8.8,3.2
			C210,70.7,216.2,65.9,216.6,57.4z"/>
		<path class="st0" d="M235.5,73c0,1.6-1.4,2.9-3.1,2.9c-1.9,0-3.1-1.3-3.1-2.9V22c0-1.6,1.3-2.9,3.1-2.9c1.7,0,3.1,1.3,3.1,2.9V73z
			"/>
		<path class="st0" d="M246.6,25.9c0,3.8-6.4,3.9-6.4,0v-3.8c0-3.9,6.4-3.9,6.4,0V25.9z M240.3,35.1c0-3.7,6.2-3.7,6.2-0.1v38.3
			c0,3.7-6.2,3.7-6.2,0V35.1z"/>
		<path class="st0" d="M278.1,75.5H256c-1.7,0-3.1-1.4-3.1-3.1V24.5c0-1.7,1.4-3.1,3.1-3.1h20.1c7.9,0,20.1,2.6,20.1,14.7
			c0,4.4-2.1,8.3-6.5,10.1c6.2,2,10.5,6.3,10.5,13.2C300.2,72.1,288.8,75.5,278.1,75.5z M259.1,27v17.3h17.3c7.3,0,13.7-2,13.7-8.2
			c0-7.3-8.7-9.2-13.9-9.2h-17.1V27z M259.1,70h19c7.5,0,15.7-2,15.7-10.5c0-6.7-5.8-9.6-13.2-9.6H259V70H259.1z"/>
		<path class="st0" d="M310.3,57.3c0,7.8,6.3,13.3,13.2,13.3c8.2,0,16-6.8,16-16.1V34.8c0-1.9,1.1-3,3.1-3s3.2,1.1,3.2,3v38.1
			c0,3.9-6.1,4-6.1-0.1v-5.4c-3.1,6.2-9.6,8.9-16.2,8.9c-9.9,0-19.3-6.8-19.3-19V34.8c0-1.9,1.1-3,3.1-3c1.9,0,3.1,1.1,3.1,3v22.5
			H310.3z"/>
		<path class="st0" d="M358.5,39.3c2.7-5.7,7.8-7.2,12.7-7.2c2,0,3.2,1,3.2,3c0,1.9-1.3,2.9-3.2,2.9c-8.8,0-12.5,7-12.5,15.6v19.2
			c0,1.8-1.4,3-3.1,3c-1.9,0-3.1-1.2-3.1-3V35.1c0-3.7,6-4.1,6,0V39.3z"/>
		<path class="st0" d="M412,73.5c0,12.3-9.4,18.7-21,18.7c-6.5,0-11.6-1.5-16.2-5.9c-3.4-3.3,1.3-7.2,4.2-4.4
			c4.3,3.2,7.3,4.2,12.1,4.2c7.7,0,15-3.9,15-12.7v-4.6c-3,5.4-8.5,7.4-13.6,7.5c-3.2,0.1-6.3-0.4-9.2-1.6
			c-7.9-3.2-12.8-11-12.9-19.6c-0.3-9.9,4.3-18.3,13.6-22.1c2.6-1,5.4-1.4,8-1.4c5.2,0,11.1,2,13.9,6.6v-3.1c0-1.9,1.1-3.1,3.1-3.1
			c1.9,0,3.1,1.2,3.1,3.1v38.4H412z M382.7,40.7L382.7,40.7c-4.6,3.8-6.4,8.9-6.2,14.5c0.1,2.2,0.5,4.5,1.3,6.3
			c2.4,6,8.5,9.2,14.5,9.1h-0.1c7.7-0.3,13.6-5.9,13.6-13.1v-6.7c0-5.4-2.2-9.4-7.2-11.6C393.5,36.8,387.3,37.1,382.7,40.7z"/>
		<path class="st0" d="M445.1,32.4c9.6,2.6,15.6,10.5,15.7,21.3v-0.1c0.2,1.9-0.7,3.9-4.2,3.9H423c1.1,7,7.1,12.8,15.6,12.8
			c3.9,0,8-1,11.3-3.6c3-2.7,7.4,0.8,4.1,4.2c-3.9,3.7-9.6,5.2-15.1,5.1c-6.6,0-13.3-2.6-17.3-7.6c-9.2-12.1-5.2-31.6,10.6-36
			C436.2,31.2,440.8,31.3,445.1,32.4L445.1,32.4z M422.8,52.4h32c-0.6-7.2-5-12.8-11.6-14.5h0.1c-2.8-0.8-6.3-0.8-9.2,0.1
			C427.3,39.8,423.3,45.5,422.8,52.4z"/>
		<path class="st0" d="M471.3,39.3c2.7-5.7,7.8-7.2,12.7-7.2c2,0,3.2,1,3.2,3c0,1.9-1.3,2.9-3.2,2.9c-8.8,0-12.5,7-12.5,15.6v19.2
			c0,1.8-1.4,3-3.1,3c-1.9,0-3.1-1.2-3.1-3V35.1c0-3.7,6-4.1,6,0V39.3z"/>
	</g>
	<path class="st0" d="M361.7,101.7l-2.2,13.6H356l2-12.2c0.3-1.9,0.4-3.3,0.3-4.1c-0.1-0.8-0.5-1.5-1.1-1.9
		c-0.6-0.5-1.4-0.7-2.2-0.7c-1,0-2,0.3-3,1c-1,0.6-1.9,1.5-2.6,2.6c-0.8,1.1-1.3,2.6-1.7,4.7l-1.8,10.5h-3.4l5.2-31h3.4l-2.2,13.3
		c0.9-1.2,1.8-2,2.5-2.6c0.8-0.6,1.6-1,2.3-1.3c0.8-0.3,1.7-0.4,2.5-0.4c1.3,0,2.4,0.3,3.3,0.8c0.9,0.6,1.6,1.4,1.9,2.4
		C362.2,97.6,362.2,99.4,361.7,101.7z M340.6,98.6L340.6,98.6l-3.4,0.1v-0.1c0.1-0.7-0.1-1.3-0.8-1.7c-0.6-0.4-1.5-0.6-2.6-0.6
		c-1.4,0-2.4,0.3-3.3,0.9c-0.8,0.6-1.3,1.4-1.5,2.2c-0.1,0.7,0,1.3,0.4,1.7c0.4,0.4,1.2,0.8,2.2,1.1l1.6,0.5l1.2,0.4
		c1.6,0.5,2.5,0.9,2.9,1.1c0.4,0.2,0.7,0.5,1.1,0.8c0.5,0.5,0.9,1.1,1,1.7c0.2,0.7,0.2,1.5,0,2.3c-0.3,2-1.4,3.7-2.9,5.1
		c-1.7,1.4-3.8,2-6.4,2c-1.7,0-3-0.3-4.1-0.8c-1-0.5-1.8-1.3-2.2-2.1c-0.5-1-0.7-2-0.5-3.2v-0.1h3.4v0.1c-0.2,1,0.1,1.7,0.6,2.3
		c0.6,0.6,1.7,0.9,3.2,0.9c1.4,0,2.6-0.4,3.6-1.1s1.6-1.6,1.8-2.5c0.2-1.4-0.5-2.2-2-2.8l-1.7-0.6l-1.1-0.4l-2.2-0.8
		c-2.5-1.1-3.6-2.8-3.1-5.2c0.3-1.7,1.2-3.2,2.7-4.5c1.6-1.3,3.5-1.9,6.1-1.9c2.5,0,4.2,0.6,5.2,1.7C340.6,96,340.9,97.2,340.6,98.6
		z M317.8,99.1c-0.3-1-0.8-1.7-1.6-2.1c-0.7-0.5-1.7-0.7-2.7-0.7c-1.3,0-2.5,0.6-3.8,1.6c-1.3,1.1-2.2,2.5-2.8,4.5h11l0.1-0.4
		C318.1,100.9,318.1,99.9,317.8,99.1z M321,103.9l-0.2,1.2h-14.5c-0.4,2.3-0.1,4.2,0.8,5.7c1,1.5,2.4,2.2,4.6,2.2
		c1.5,0,2.6-0.3,3.4-0.9c0.8-0.6,1.3-1.3,1.4-2v-0.2h3.4v0.2c-0.2,1-0.7,1.9-1.6,2.9c-0.9,1-1.9,1.8-3.2,2.2
		c-1.3,0.5-2.6,0.8-4.2,0.8c-3.1,0-5.4-1.1-6.6-3.2c-1.4-2.1-1.8-4.8-1.2-8c0.6-3.3,1.9-6,4.1-8.2c2.1-2.1,4.7-3.2,7.4-3.2
		c1.6,0,2.9,0.4,4,1.1c1.2,0.7,1.9,1.8,2.4,3.3C321.4,99.2,321.4,101.2,321,103.9z M302.2,97.3c-0.8-0.4-1.6-0.6-2.4-0.6
		c-1.3,0-2.6,0.6-4,1.8c-1.4,1.2-2.3,3.3-2.8,6.2l-1.8,10.6h-3.4l3.6-21.4h3.4l-0.7,3.8c0.8-1.1,1.5-1.9,2.2-2.5
		c0.8-0.6,1.6-1.1,2.3-1.4c0.8-0.3,1.6-0.5,2.3-0.5c0.7,0,1.3,0.1,1.8,0.3L302.2,97.3z M287.4,88.8h-12.4l-1.8,10.3h10.8l-0.5,3
		h-10.8l-2.2,13.3h-3.7l5-29.8h16.1L287.4,88.8z M257.7,98.6L257.7,98.6l-3.4,0.1v-0.1c0.1-0.7-0.1-1.3-0.8-1.7
		c-0.6-0.4-1.5-0.6-2.6-0.6c-1.4,0-2.4,0.3-3.3,0.9c-0.8,0.6-1.3,1.4-1.5,2.2c-0.1,0.7,0,1.3,0.4,1.7c0.4,0.4,1.2,0.8,2.2,1.1
		l1.6,0.5l1.2,0.4c1.6,0.5,2.5,0.9,2.9,1.1c0.4,0.2,0.7,0.5,1.1,0.8c0.5,0.5,0.9,1.1,1,1.7c0.2,0.7,0.2,1.5,0,2.3
		c-0.3,2-1.4,3.7-2.9,5.1c-1.7,1.4-3.8,2-6.4,2c-1.7,0-3-0.3-4.1-0.8c-1-0.5-1.8-1.3-2.2-2.1c-0.5-1-0.7-2-0.5-3.2v-0.1h3.4v0.1
		c-0.2,1,0.1,1.7,0.6,2.3c0.6,0.6,1.7,0.9,3.2,0.9c1.4,0,2.6-0.4,3.6-1.1s1.6-1.6,1.8-2.5c0.2-1.4-0.5-2.2-2-2.8l-1.7-0.6l-1.1-0.4
		l-2.2-0.8c-2.5-1.1-3.6-2.8-3.1-5.2c0.3-1.7,1.2-3.2,2.7-4.5c1.6-1.3,3.5-1.9,6.1-1.9c2.5,0,4.2,0.6,5.2,1.7
		C257.6,96,258,97.2,257.7,98.6z M229.1,115.4c-1.7,2.9-2.9,4.8-3.9,5.8c-1,1-1.9,1.7-2.8,1.9c-1,0.4-2.1,0.6-3.6,0.6h-2.5l0.5-2.9
		h1.9c1,0,1.8-0.1,2.5-0.4s1.4-0.7,1.9-1.3c0.6-0.6,1.4-1.9,2.5-3.8l0.5-0.9l-5.4-20.6h3.8l4.2,16l9.1-16h3.4L229.1,115.4z
		 M211.4,104.8c-3.6,0.9-5.9,1.8-7,2.5c-1.1,0.8-1.8,1.8-1.9,2.8c-0.1,0.6,0,1.1,0.2,1.6s0.6,0.9,1.1,1.2c0.5,0.3,1.1,0.4,1.6,0.4
		c1,0,1.9-0.3,2.9-0.9c1-0.6,1.9-1.4,2.5-2.3c0.7-1,1.1-2.1,1.4-3.4l0.4-2.1L211.4,104.8z M216.6,100.6l-1.4,8.4
		c-0.2,1-0.3,1.9-0.4,2.9c-0.1,1-0.1,2.1,0.1,3.5h-3.6c-0.2-1.2-0.2-2.1,0-2.9c-1.8,1.6-3.2,2.5-4.3,2.9c-1.1,0.4-2.1,0.6-3.1,0.6
		c-1.6,0-2.9-0.5-3.9-1.6c-1-1.1-1.4-2.4-1.1-4.3c0.4-2,1.5-3.7,3.2-4.8c1.9-1.2,4.8-2.1,9-2.9l1.9-0.4l0.4-2.4
		c0.2-1.4,0-2.2-0.8-2.8c-0.8-0.5-1.8-0.8-2.9-0.8c-1.4,0-2.5,0.3-3.5,1c-0.9,0.7-1.5,1.5-1.6,2.3l-0.1,0.3h-3.7l0.1-0.3
		c0.2-1,0.7-1.9,1.7-2.9c1-1,2-1.8,3.4-2.2s2.7-0.8,4.3-0.8c1.5,0,2.8,0.3,3.9,0.8c1.2,0.5,1.9,1.2,2.3,1.9
		C216.9,96.9,217,98.4,216.6,100.6z M189.6,115.3h-3.4l-1.9-14v-3.1H184l-1.1,3.1l-6.2,14h-3.4l-2.2-21.4h3.6l1.2,13.4l-0.1,3.2h0.4
		l1.1-3.2l5.8-13.4h3.4l1.9,13.4l0.1,3.2h0.4l1.1-3.2l5.8-13.4h3.2L189.6,115.3z M164,115.3h-3.4l5.2-31h3.4L164,115.3z M148.7,90.3
		l-7.7,13.8h10.3L148.7,90.3z M153.4,115.3l-1.6-8.2h-12.5l-4.6,8.2h-3.4l16.7-29.8h3.7l5.8,29.8H153.4z"/>
</g>
</svg>
