<?xml version="1.0" encoding="iso-8859-1"?>
<!-- Generator: Adobe Illustrator 19.0.0, SVG Export Plug-In . SVG Version: 6.00 Build 0)  -->
<svg version="1.1" id="Capa_1" xmlns="http://www.w3.org/2000/svg" xmlns:xlink="http://www.w3.org/1999/xlink" x="0px" y="0px"
	 viewBox="0 0 512.001 512.001" style="enable-background:new 0 0 512.001 512.001;" xml:space="preserve">
<path style="fill:#A55A3D;" d="M466.347,372.785H45.653c-8.415,0-15.238-6.823-15.238-15.238v-59.632
	c0-8.415,6.823-15.238,15.238-15.238c22.654,0,33.335-5.403,45.702-11.661c13.845-7.005,29.539-14.944,59.471-14.944
	c29.931,0,45.625,7.939,59.47,14.943c12.369,6.258,23.052,11.661,45.713,11.661c22.654,0,33.335-5.403,45.702-11.661
	c13.845-7.005,29.539-14.945,59.471-14.945c29.926,0,45.617,7.939,59.461,14.943c12.367,6.258,23.047,11.661,45.702,11.661
	c8.415,0,15.238,6.823,15.238,15.238v59.632C481.585,365.963,474.762,372.785,466.347,372.785z"/>
<path style="fill:#A2400E;" d="M466.347,282.677c-22.655,0-33.335-5.403-45.702-11.661c-13.843-7.004-29.534-14.943-59.461-14.943
	c-29.933,0-45.626,7.939-59.471,14.945c-12.367,6.257-23.048,11.661-45.702,11.661c-0.003,0-0.006,0-0.01,0v90.108h210.347
	c8.415,0,15.238-6.823,15.238-15.238v-59.632C481.585,289.5,474.762,282.677,466.347,282.677z"/>
<path style="fill:#B7F07D;" d="M466.347,313.154c-29.927,0-45.618-7.939-59.461-14.945c-12.366-6.257-23.047-11.661-45.702-11.661
	c-22.662,0-33.344,5.404-45.713,11.662c-13.844,7.004-29.535,14.942-59.46,14.942c-29.931,0-45.624-7.939-59.47-14.943
	c-12.369-6.258-23.052-11.661-45.713-11.661c-22.662,0-33.344,5.404-45.713,11.662c-13.844,7.004-29.535,14.942-59.46,14.942
	c-8.415,0-15.238-6.823-15.238-15.238v-86.237c0-8.415,6.823-15.238,15.238-15.238h420.693c8.415,0,15.238,6.823,15.238,15.238
	v86.237C481.585,306.331,474.762,313.154,466.347,313.154z"/>
<path style="fill:#7FDC48;" d="M466.347,196.44H256v116.714c0.003,0,0.006,0,0.01,0c29.926,0,45.616-7.938,59.46-14.942
	c12.369-6.258,23.051-11.662,45.713-11.662c22.655,0,33.335,5.403,45.702,11.661c13.843,7.005,29.534,14.944,59.461,14.944
	c8.415,0,15.238-6.823,15.238-15.238v-86.237C481.585,203.262,474.762,196.44,466.347,196.44z"/>
<g>
	<path style="fill:#FFDA68;" d="M496.762,237.073H15.238C6.823,237.073,0,230.25,0,221.835C0,123.351,80.123,43.229,178.607,43.229
		h154.787C431.877,43.229,512,123.351,512,221.835C512,230.25,505.177,237.073,496.762,237.073z"/>
	<path style="fill:#FFDA68;" d="M444.254,468.772H67.747C30.391,468.772,0,438.381,0,401.027v-33.318
		c0-8.415,6.823-15.238,15.238-15.238h481.524c8.415,0,15.238,6.823,15.238,15.238v33.318
		C512,438.381,481.609,468.772,444.254,468.772z"/>
</g>
<g>
	<path style="fill:#FFA918;" d="M333.393,43.229H256v193.844h240.762c8.415,0,15.238-6.823,15.238-15.238
		C512,123.351,431.877,43.229,333.393,43.229z"/>
	<path style="fill:#FFA918;" d="M153.343,180.186c7.971,0,15.607-7.008,15.238-15.238c-0.37-8.256-6.696-15.238-15.238-15.238
		c-7.971,0-15.607,7.008-15.238,15.238C138.475,173.204,144.801,180.186,153.343,180.186L153.343,180.186z"/>
	<path style="fill:#FFA918;" d="M256,180.186c7.971,0,15.607-7.008,15.238-15.238c-0.37-8.256-6.696-15.238-15.238-15.238
		c-7.971,0-15.607,7.008-15.238,15.238C241.132,173.204,247.458,180.186,256,180.186L256,180.186z"/>
	<path style="fill:#FFA918;" d="M204.672,130.592c7.971,0,15.607-7.009,15.238-15.238c-0.37-8.256-6.696-15.238-15.238-15.238
		c-7.971,0-15.607,7.009-15.238,15.238C189.804,123.61,196.129,130.592,204.672,130.592L204.672,130.592z"/>
</g>
<g>
	<path style="fill:#FC7718;" d="M307.328,130.592c7.971,0,15.607-7.009,15.238-15.238c-0.37-8.256-6.696-15.238-15.238-15.238
		c-7.971,0-15.607,7.009-15.238,15.238C292.46,123.61,298.786,130.592,307.328,130.592L307.328,130.592z"/>
	<path style="fill:#FC7718;" d="M358.657,180.186c7.971,0,15.607-7.008,15.238-15.238c-0.37-8.256-6.696-15.238-15.238-15.238
		c-7.971,0-15.607,7.008-15.238,15.238C343.789,173.204,350.114,180.186,358.657,180.186L358.657,180.186z"/>
	<path style="fill:#FC7718;" d="M271.238,164.948c-0.37-8.256-6.696-15.238-15.238-15.238v30.476
		C263.971,180.186,271.607,173.177,271.238,164.948z"/>
</g>
<path style="fill:#FFA918;" d="M496.762,352.471H256v116.301h188.254c37.355,0,67.747-30.391,67.747-67.747v-33.318
	C512,359.293,505.177,352.471,496.762,352.471z"/>
<g>
</g>
<g>
</g>
<g>
</g>
<g>
</g>
<g>
</g>
<g>
</g>
<g>
</g>
<g>
</g>
<g>
</g>
<g>
</g>
<g>
</g>
<g>
</g>
<g>
</g>
<g>
</g>
<g>
</g>
</svg>
