<?xml version="1.0" ?><svg id="Layer_1" style="enable-background:new 0 0 398.905 398.905;" version="1.1" viewBox="0 0 398.905 398.905" xml:space="preserve" xmlns="http://www.w3.org/2000/svg" xmlns:xlink="http://www.w3.org/1999/xlink"><g id="Chilli_x5F_sauce_x5F_dip"><circle cx="199.452" cy="199.452" id="XMLID_1468_" r="168.838" style="fill:#F5EFE0;"/><path d="M199.452,330.629c-72.331,0-131.177-58.846-131.177-131.177   S127.121,68.276,199.452,68.276s131.177,58.846,131.177,131.177S271.783,330.629,199.452,330.629z M199.452,71.276   c-70.677,0-128.177,57.5-128.177,128.177s57.5,128.177,128.177,128.177s128.177-57.5,128.177-128.177   S270.129,71.276,199.452,71.276z" id="XMLID_920_" style="fill:#393E86;"/><rect height="25.244" id="XMLID_1404_" style="fill:#378F5D;" width="398.905" x="0" y="99.564"/><rect height="25.244" id="XMLID_1403_" style="fill:#49BF7C;" width="398.905" x="0" y="124.264"/><rect height="25.244" id="XMLID_1402_" style="fill:#378F5D;" width="398.905" x="0" y="149.508"/><rect height="25.244" id="XMLID_1401_" style="fill:#49BF7C;" width="398.905" x="0" y="174.209"/><rect height="25.244" id="XMLID_1400_" style="fill:#378F5D;" width="398.905" x="0" y="199.452"/><rect height="25.244" id="XMLID_1399_" style="fill:#49BF7C;" width="398.905" x="0" y="224.153"/><rect height="25.244" id="XMLID_1398_" style="fill:#378F5D;" width="398.905" x="0" y="249.397"/><rect height="25.244" id="XMLID_1397_" style="fill:#49BF7C;" width="398.905" x="0" y="274.097"/><path d="M162.207,163.478v161.366c0,11.657-13.94,17.664-22.413,9.658l-4.722-4.461   c-45.814-43.287-71.775-103.534-71.775-166.563v0H162.207z" id="XMLID_976_" style="fill:#EBEAE8;"/><path d="M162.207,60.642v102.837H63.297v-3.927   C63.297,104.925,107.581,60.642,162.207,60.642L162.207,60.642z" id="XMLID_992_" style="fill:#C2B9B9;"/><circle cx="266.391" cy="290.236" id="XMLID_307_" r="65.444" style="fill:#F3CFAD;"/><path d="M316.214,290.236c0,27.472-22.351,49.823-49.824,49.823   c-27.472,0-49.823-22.351-49.823-49.823s22.351-49.823,49.823-49.823C293.863,240.413,316.214,262.764,316.214,290.236z" id="XMLID_1172_" style="fill:#AF6C5A;"/><circle cx="290.586" cy="274.669" id="XMLID_1213_" r="9.099" style="fill:#55BC7F;"/><circle cx="243.721" cy="309.818" id="XMLID_1257_" r="9.099" style="fill:#55BC7F;"/><rect height="14.42" id="XMLID_1324_" style="fill:#EF5B62;" transform="matrix(0.7071 -0.7071 0.7071 0.7071 -122.5783 252.6593)" width="6.325" x="240.535" y="267.085"/><rect height="14.42" id="XMLID_539_" style="fill:#EF5B62;" transform="matrix(-0.7071 -0.7071 0.7071 -0.7071 273.6758 737.2167)" width="6.325" x="286.358" y="304.718"/><path d="M270.452,274.929c5.221,8.199,5.983,17.958,2.93,26.448   c-8.985-0.824-17.506-5.642-22.727-13.841c-5.221-8.199-5.983-17.958-2.93-26.448C256.71,261.912,265.231,266.73,270.452,274.929z" id="XMLID_373_" style="fill:#227748;"/><path d="M227.437,178.326L227.437,178.326c-22.236,0-40.262-18.026-40.262-40.261v-11.033   c0-44.472,36.051-80.523,80.523-80.523h0v91.556C267.698,160.3,249.673,178.326,227.437,178.326z" id="XMLID_171_" style="fill:#BBEF84;"/><polygon id="XMLID_169_" points="237.745,93.452 267.736,67.359 267.875,93.452  " style="fill:#55BC7F;"/><polygon id="XMLID_105_" points="237.745,129.452 267.736,103.359 267.875,129.452  " style="fill:#55BC7F;"/><line id="XMLID_104_" style="fill:none;stroke:#347453;stroke-width:4;stroke-miterlimit:10;" x1="225.452" x2="225.452" y1="177.452" y2="82.452"/><path d="M90.92,162.494c-0.512,0-1.011-0.262-1.291-0.734   c-0.423-0.713-0.188-1.633,0.524-2.056l43.666-25.909c0.713-0.422,1.633-0.188,2.056,0.524s0.188,1.633-0.524,2.056l-43.666,25.909   C91.445,162.427,91.181,162.494,90.92,162.494z" id="XMLID_1174_" style="fill:#996250;"/><path d="M90.92,192.494c-0.512,0-1.011-0.262-1.291-0.734   c-0.423-0.713-0.188-1.633,0.524-2.056l43.666-25.909c0.713-0.422,1.633-0.188,2.056,0.524s0.188,1.633-0.524,2.056l-43.666,25.909   C91.445,192.427,91.181,192.494,90.92,192.494z" id="XMLID_1173_" style="fill:#996250;"/><path d="M90.92,222.494c-0.512,0-1.011-0.262-1.291-0.734   c-0.423-0.713-0.188-1.633,0.524-2.056l43.666-25.909c0.713-0.422,1.633-0.188,2.056,0.524s0.188,1.633-0.524,2.056l-43.666,25.909   C91.445,222.427,91.181,222.494,90.92,222.494z" id="XMLID_1171_" style="fill:#996250;"/><path d="M90.92,252.494c-0.512,0-1.011-0.262-1.291-0.734   c-0.423-0.713-0.188-1.633,0.524-2.056l43.666-25.909c0.713-0.422,1.633-0.188,2.056,0.524s0.188,1.633-0.524,2.056l-43.666,25.909   C91.445,252.427,91.181,252.494,90.92,252.494z" id="XMLID_695_" style="fill:#996250;"/><path d="M228.858,206.959L228.858,206.959c-15.723-15.723-15.723-41.215,0-56.938   l7.801-7.801c31.446-31.446,82.43-31.446,113.877,0l0,0l-64.74,64.74C270.074,222.682,244.581,222.682,228.858,206.959z" id="XMLID_861_" style="fill:#BBEF84;"/><polygon id="XMLID_859_" points="296.162,154.234 335.819,156.99 317.467,175.539  " style="fill:#55BC7F;"/><polygon id="XMLID_858_" points="270.706,179.689 310.364,182.445 292.011,200.995  " style="fill:#55BC7F;"/><line id="XMLID_857_" style="fill:none;stroke:#347453;stroke-width:4;stroke-miterlimit:10;" x1="228.073" x2="295.248" y1="204.938" y2="137.763"/></g><g/><g/><g/><g/><g/><g/><g/><g/><g/><g/><g/><g/><g/><g/><g/></svg>