<?xml version="1.0" encoding="iso-8859-1"?>
<!-- Generator: Adobe Illustrator 19.0.0, SVG Export Plug-In . SVG Version: 6.00 Build 0)  -->
<svg version="1.1" id="Capa_1" xmlns="http://www.w3.org/2000/svg" xmlns:xlink="http://www.w3.org/1999/xlink" x="0px" y="0px"
	 viewBox="0 0 512 512" style="enable-background:new 0 0 512 512;" xml:space="preserve">
<path style="fill:#CAE8F9;" d="M391,195c0,8.399-6.599,15-15,15H136c-8.401,0-15-6.601-15-15c0-69.3,52.5-126.601,120-134.101
	C245.799,60.3,250.901,60,256,60s10.201,0.3,15,0.899C338.5,68.399,391,125.7,391,195z"/>
<path style="fill:#B7E0F6;" d="M391,195c0,8.399-6.599,15-15,15H256V60c5.099,0,10.201,0.3,15,0.899C338.5,68.399,391,125.7,391,195
	z"/>
<path style="fill:#CAE8F9;" d="M387.7,226.8L377.5,331l-33,31h-177l-33-31l-10.2-104.2c-0.899-8.401,5.101-15.901,13.5-16.8h236.4
	C382.599,210.899,388.599,218.399,387.7,226.8z"/>
<path style="fill:#B7E0F6;" d="M387.7,226.8L377.5,331l-33,31H256V210h118.2C382.599,210.899,388.599,218.399,387.7,226.8z"/>
<path style="fill:#BF6015;" d="M271,225v121c0,8.399-6.599,16-15,16s-15-7.601-15-16V225c0-8.401,6.599-15,15-15
	S271,216.599,271,225z"/>
<path style="fill:#FEC478;" d="M377.5,331L364,472.099C361.3,494.9,342.1,512,318.999,512H193.001c-23.101,0-42.301-17.1-45-39.901
	L134.5,331H377.5z"/>
<path style="fill:#FEB756;" d="M256,331h121.5L364,472.099C361.3,494.9,342.1,512,318.999,512H256V331z"/>
<path style="fill:#994C10;" d="M391,15c0,8.399-6.599,15-15,15h-90c-8.401,0-15,6.599-15,15v15.899C266.201,60.3,261.099,60,256,60
	s-10.201,0.3-15,0.899V45c0-13.2,5.7-25.201,15-33.3C263.8,4.499,274.3,0,286,0h90C384.401,0,391,6.599,391,15z"/>
<g>
	<path style="fill:#BF6015;" d="M271,60.899V195c0,8.399-6.599,15-15,15s-15-6.601-15-15V60.899C245.799,60.3,250.901,60,256,60
		S266.201,60.3,271,60.899z"/>
	<circle style="fill:#BF6015;" cx="226" cy="437" r="15"/>
</g>
<circle style="fill:#994C10;" cx="286" cy="407" r="15"/>
<path style="fill:#B7E0F6;" d="M421,210c0,16.5-13.5,30-30,30H121c-16.5,0-30-13.5-30-30s13.5-30,30-30h270
	C407.5,180,421,193.5,421,210z"/>
<path style="fill:#A4D9F5;" d="M421,210c0,16.5-13.5,30-30,30H256v-60h135C407.5,180,421,193.5,421,210z"/>
<g>
</g>
<g>
</g>
<g>
</g>
<g>
</g>
<g>
</g>
<g>
</g>
<g>
</g>
<g>
</g>
<g>
</g>
<g>
</g>
<g>
</g>
<g>
</g>
<g>
</g>
<g>
</g>
<g>
</g>
</svg>
