<svg width="512" height="512" xmlns="http://www.w3.org/2000/svg">

 <g>
  <title>background</title>
  <rect fill="none" id="canvas_background" height="402" width="582" y="-1" x="-1"/>
 </g>
 <g>
  <title>Layer 1</title>
  <circle fill="#571881" id="svg_2" r="253.44" cy="256" cx="256"/>
  <path id="svg_3" fill="#FFFFFF" d="m184.69,283.819c0.05,0.049 0.089,0.099 0.139,0.148c-0.05,0.029 -0.089,0.049 -0.139,0.079c-0.049,-0.05 -0.089,-0.099 -0.139,-0.149c0.05,-0.018 0.09,-0.048 0.139,-0.078z"/>
  <path id="svg_4" fill="#FFFFFF" d="m327.478,283.859c-0.049,0.059 -0.109,0.129 -0.168,0.188c-0.059,-0.04 -0.119,-0.07 -0.178,-0.099c0.059,-0.059 0.119,-0.129 0.178,-0.188c0.059,0.029 0.109,0.069 0.168,0.099z"/>
  <path id="svg_5" fill="#FFFFFF" d="m338.404,368.078l-164.808,0c-6.637,0 -12.017,-5.38 -12.017,-12.017l0,-120.696l188.841,0l0,120.696c0.001,6.637 -5.38,12.017 -12.016,12.017z"/>
  <path id="svg_6" fill="#FFFFFF" d="m374.422,252.546c5.013,5.013 1.429,13.582 -5.66,13.534l-111.874,-0.757l-112.241,-0.759c-7.037,-0.048 -10.528,-8.558 -5.552,-13.534l111.299,-111.3c3.096,-3.096 8.116,-3.096 11.212,0l112.816,112.816z"/>
  <path fill="#571881" id="svg_7" d="m274.765,282.2l-37.53,0c-9.323,0 -16.88,7.557 -16.88,16.88l0,69.456l71.289,0l0,-69.456c0.001,-9.323 -7.557,-16.88 -16.879,-16.88z"/>
 </g>
</svg>