<?xml version="1.0" encoding="utf-8"?>
<!-- Generator: Adobe Illustrator 19.1.0, SVG Export Plug-In . SVG Version: 6.00 Build 0)  -->
<svg version="1.1" xmlns="http://www.w3.org/2000/svg" xmlns:xlink="http://www.w3.org/1999/xlink" x="0px" y="0px"
	 viewBox="0 0 123.7 118" style="enable-background:new 0 0 123.7 118;" xml:space="preserve">
<style type="text/css">
	.st0{opacity:0.5;}
	.st1{fill:#FFFFFF;}
</style>
<g id="Layer_2">
</g>
<g id="Layer_1">
	<g class="st0">
		<g>
			<polygon class="st1" points="96.7,11 98.6,11 98.6,16 99.8,16 99.8,11 101.8,11 101.8,9.9 96.7,9.9 			"/>
			<polygon class="st1" points="106.9,9.9 105.1,12.2 103.2,9.9 102.2,9.9 102.2,16 103.4,16 103.4,11.8 104.9,13.8 105.2,13.8 
				106.8,11.8 106.8,16 107.9,16 107.9,9.9 			"/>
		</g>
		<g>
			<path class="st1" d="M31,101.7c4.5-1.5,9.5-3,15-4.5c0.5-9.8,0.5-24.1-1.9-41.6c-0.1-1.1,0.6-2.1,1.7-2.2
				c1.1-0.1,2.1,0.6,2.2,1.7c2.3,17.1,2.5,31.2,2,41.1c8.7-2.2,18.5-4.3,29-5.9c1.4-6.5,2.8-14.7,3.5-24.4c0.1-1.1,1-1.9,2.1-1.8
				c1.1,0.1,1.9,1,1.8,2.1c-0.7,9.2-1.9,17.1-3.3,23.5c3.9-0.5,7.8-1,11.8-1.4c0,0,0.1,0,0.1,0c0.5,0,1-0.1,1.5-0.1
				c6.7-8.9,10.7-20,10.7-32c0-29.3-23.8-53.1-53.1-53.1C25.1,2.9,1.3,26.7,1.3,56c0,14.3,5.7,27.3,14.9,36.8
				c0.4-0.1,0.8-0.3,1.2-0.4c0,0,0,0,0,0c5-1.8,11.4-3.9,18.8-6c0.8-0.2,1.7,0.2,1.9,1.1c0.2,0.8-0.2,1.7-1.1,1.9
				c-7.3,2.1-13.5,4.1-18.4,5.9c3,2.7,6.4,5.1,9.9,7.1c0.7-0.2,1.3-0.4,2-0.7C30.7,101.7,30.9,101.7,31,101.7z M86.2,52.7
				c2.2-1.4,4.8-2.2,7.5-2.2c4.1,0,8,1.8,10.7,4.9c0.2,0.2,0.3,0.4,0.3,0.7c0,0.5-0.4,0.9-0.9,0.9c0,0,0,0,0,0c0,0-0.1,0-0.1,0
				c0,0-1.7-0.2-4.1-0.2c-1.8,0-4.3,0.1-6.7,0.7c1,0.7,2,1.6,2.8,2.5c2.4,2.9,3.5,6.5,3.1,10.2c0,0.4-0.3,0.7-0.7,0.8
				c-0.1,0-0.2,0-0.2,0c-0.3,0-0.6-0.1-0.7-0.4c-0.1-0.1-5.4-7.5-11.7-7.9c-0.1,0-0.1,0-0.2,0c0,0-0.1,0-0.1,0c0,0,0,0,0,0
				c0,0-0.1,0-0.1,0c-0.4,0-0.7-0.1-1.1-0.1c-5.9,0-11.7,5.6-11.8,5.6c-0.2,0.2-0.4,0.2-0.6,0.2c-0.1,0-0.3,0-0.4-0.1
				c-0.3-0.2-0.5-0.5-0.5-0.9c0.5-5.2,3.7-9.5,8.2-11.4c-4.7-2.1-10.4-2.5-10.5-2.5c-0.4,0-0.7-0.3-0.8-0.6s0-0.7,0.3-1
				c2.5-2.1,5.7-3.2,8.9-3.2C80.2,49,83.6,50.3,86.2,52.7z M29.1,61.4c-0.1,0.1-0.2,0.2-0.4,0.2c0,0-0.1,0-0.1,0
				c-0.2-0.1-0.3-0.2-0.4-0.4c-0.4-4.8,1-9.5,4.1-13.2c1.4-1.7,3.1-3,4.9-4.1c-3.7-1.2-7.9-1.4-10.8-1.4c-3.1,0-5.4,0.3-5.5,0.3
				c-0.2,0-0.4-0.1-0.5-0.3c-0.1-0.2-0.1-0.4,0.1-0.6c3.4-4.1,8.5-6.5,13.9-6.5c3.6,0,7.2,1.1,10.1,3.1c3.4-3.3,7.9-5.2,12.7-5.2
				c4.2,0,8.3,1.5,11.5,4.2c0.2,0.1,0.2,0.3,0.2,0.5c-0.1,0.2-0.2,0.3-0.4,0.3c-0.1,0-9.2,0.6-15.8,4.1c6.5,2.3,11.3,8.1,12,15.4
				c0,0.2-0.1,0.4-0.3,0.5c-0.1,0-0.1,0-0.2,0c-0.1,0-0.3,0-0.3-0.1c-0.1-0.1-8.2-7.8-16.3-7.8c-0.5,0-1.1,0-1.6,0.1
				c-0.1,0-0.2,0-0.3,0c-0.1,0-0.2,0.1-0.2,0.1C36.6,51.1,29.2,61.3,29.1,61.4z"/>
			<path class="st1" d="M32.7,104.4c3.9,1.8,8.1,3.1,12.4,3.8c0.2-1.9,0.5-4.5,0.8-7.7C41.1,101.8,36.7,103.1,32.7,104.4z"/>
			<path class="st1" d="M49.9,99.4c-0.3,4-0.6,7.1-0.9,9.4c1.8,0.2,3.6,0.3,5.4,0.3c7.3,0,14.2-1.5,20.5-4.1c0.8-2.1,2-6,3.4-11.5
				C68,95.1,58.5,97.2,49.9,99.4z"/>
			<path class="st1" d="M80,102.5c5.3-2.9,10-6.7,13.9-11.1c-3.8,0.4-7.6,0.9-11.3,1.4C81.7,96.8,80.8,100,80,102.5z"/>
			<path class="st1" d="M44.5,112c-0.2,1.1,0.5,2.1,1.6,2.3c0.1,0,0.3,0,0.4,0c0.9,0,1.8-0.7,2-1.6c0-0.2,0.3-1.6,0.6-4
				c-1.3-0.1-2.7-0.3-4-0.6C44.8,110.7,44.5,112,44.5,112z"/>
			<path class="st1" d="M6.5,111C6.4,111,6.4,111,6.5,111c-0.9,0.4-1.2,1.3-0.8,2.1c0.3,0.6,0.8,0.9,1.4,0.9c0.2,0,0.5,0,0.7-0.2
				c0,0,0,0,0.1,0c0.9-0.4,10-4.6,24.8-9.4c-1.4-0.6-2.7-1.3-4-2C15.4,106.8,7.2,110.6,6.5,111z"/>
			<path class="st1" d="M74.2,106.8c-0.4,1,0,2.2,1.1,2.6c0.3,0.1,0.5,0.2,0.8,0.2c0.8,0,1.5-0.5,1.8-1.2c0.1-0.2,0.9-2.2,2.1-5.8
				c-1.6,0.9-3.3,1.7-5.1,2.4C74.5,106.1,74.3,106.8,74.2,106.8z"/>
			<path class="st1" d="M119.1,86.9c-0.1,0-0.2,0-0.3,0c0,0,0,0,0,0h0c-1.9,0-3.9,0.1-5.8,0.1c0,0,0,0-0.1,0
				c-1.9,0.1-3.8,0.1-5.6,0.2c-0.2,0-0.5,0-0.7,0c-1.5,0.1-3.1,0.2-4.6,0.3c-0.7,0-1.3,0.1-2,0.2c-1,0.1-2,0.2-3,0.3
				c-0.1,0-0.1,0-0.2,0c-0.9,1.2-1.8,2.3-2.8,3.4c0.8-0.1,1.7-0.2,2.5-0.3c1.4-0.1,2.7-0.2,4.1-0.4c0.4,0,0.9-0.1,1.3-0.1
				c1.7-0.1,3.4-0.2,5.2-0.3c0.1,0,0.3,0,0.4,0c3.8-0.2,7.7-0.3,11.5-0.4c0.6,0,1.1-0.4,1.4-0.9c0.1-0.1,0.1-0.3,0.1-0.4
				c0-0.1,0-0.2,0-0.3c0,0,0,0,0,0C120.4,87.7,119.8,87,119.1,86.9z"/>
			<path class="st1" d="M16.2,92.8c-7.5,2.7-11.7,4.6-11.9,4.7c-0.8,0.4-1.1,1.3-0.8,2.1c0.3,0.6,0.8,0.9,1.4,0.9
				c0.2,0,0.4,0,0.6-0.1c0,0,0.1,0,0.2-0.1c0,0,0,0,0,0c0.1,0,0.1-0.1,0.2-0.1c0,0,0.1,0,0.1,0c0,0,0.1,0,0.2-0.1
				c1.6-0.7,5.9-2.5,12.4-4.8C17.8,94.5,17,93.7,16.2,92.8z"/>
		</g>
	</g>
</g>
</svg>
